#!OML:ASF H:\Punching\Project 1\Capture day 1\Session 1\female.ASF
:FULLY-SPECIFIED
:DEGREES
1136
root 1.87658 9.57594 0.878322 8.33941 -14.6681 0.809247
lowerback 33.2132 -0.938352 -5.64412
upperback 2.06001 -3.59837 -1.58917
thorax -14.6147 -1.29407 2.81305
lowerneck -8.74077 11.1954 18.546
upperneck 14.8721 13.7277 -8.3216
head 7.91644 6.96485 -4.19655
rclavicle 7.63333e-014 -1.98785e-014
rhumerus 6.11929 15.0497 -69.4396
rradius 129.71
rwrist -41.2909
rhand -10.893 -12.2146
rfingers 7.12502
rthumb 15.1235 -41.6421
lclavicle 7.63333e-014 -1.98785e-014
lhumerus 35.8675 -20.8321 66.3007
lradius 139.437
lwrist 17.042
lhand -25.0745 8.42889
lfingers 7.12502
lthumb 1.43959 38.4038
rfemur -46.975 -52.5224 -22.7337
rtibia 115.403
rfoot -44.2831 28.2172
rtoes -41.137
lfemur -90.9377 20.5737 -19.0859
ltibia 108.692
lfoot -25.3707 3.00321
ltoes -8.09652
1137
root 1.88039 9.59831 0.872752 8.3395 -15.0043 0.578138
lowerback 33.2776 -0.876499 -5.7109
upperback 2.0725 -3.55838 -1.64295
thorax -14.6292 -1.27419 2.77495
lowerneck -8.67723 11.2664 18.6738
upperneck 14.6714 13.8119 -8.34405
head 7.86189 7.00834 -4.21419
rclavicle 7.15625e-015 -1.82882e-014
rhumerus 4.73089 15.574 -70.0396
rradius 130.67
rwrist -41.859
rhand -11.3135 -12.1169
rfingers 7.12502
rthumb 14.7185 -41.5744
lclavicle 7.15625e-015 -1.82882e-014
lhumerus 35.7903 -20.5363 66.0529
lradius 139.427
lwrist 17.0615
lhand -25.1848 8.38514
lfingers 7.12502
lthumb 1.33311 38.3607
rfemur -47.1629 -52.6684 -22.0958
rtibia 115.054
rfoot -44.2691 28.4413
rtoes -41.1623
lfemur -90.5721 20.5449 -18.532
ltibia 108.575
lfoot -25.3484 3.29816
ltoes -8.19421
1138
root 1.88122 9.6195 0.865874 8.33271 -15.2404 0.35411
lowerback 33.3176 -0.812717 -5.69596
upperback 2.08591 -3.48448 -1.70198
thorax -14.6406 -1.24476 2.67302
lowerneck -8.60103 11.2795 18.7573
upperneck 14.4762 13.8242 -8.35125
head 7.79252 7.01708 -4.23204
rclavicle 5.00937e-014 1.74931e-014
rhumerus 3.30193 16.223 -70.7466
rradius 131.523
rwrist -42.1894
rhand -11.82 -12.0462
rfingers 7.12502
rthumb 14.2305 -41.5387
lclavicle 5.00937e-014 1.74931e-014
lhumerus 35.7082 -20.3201 65.86
lradius 139.393
lwrist 17.0902
lhand -25.2706 8.33863
lfingers 7.12502
lthumb 1.25023 38.3147
rfemur -47.2529 -52.732 -21.5699
rtibia 114.712
rfoot -44.248 28.7423
rtoes -41.2032
lfemur -90.2346 20.4658 -18.0059
ltibia 108.439
lfoot -25.3056 3.57675
ltoes -8.37361
1139
root 1.87908 9.63942 0.857727 8.32157 -15.3785 0.141791
lowerback 33.3291 -0.743846 -5.5988
upperback 2.09756 -3.37177 -1.76399
thorax -14.6502 -1.2035 2.50743
lowerneck -8.51663 11.2358 18.7839
upperneck 14.2939 13.7681 -8.34725
head 7.71127 6.99183 -4.2488
rclavicle 1.82882e-014 3.97569e-015
rhumerus 1.86859 16.9792 -71.5521
rradius 132.245
rwrist -42.2561
rhand -12.3225 -11.9531
rfingers 7.12502
rthumb 13.7462 -41.479
lclavicle 1.82882e-014 3.97569e-015
lhumerus 35.6167 -20.1952 65.7301
lradius 139.345
lwrist 17.0956
lhand -25.3115 8.31251
lfingers 7.12502
lthumb 1.21068 38.2888
rfemur -47.2368 -52.7161 -21.1731
rtibia 114.376
rfoot -44.2043 29.1811
rtoes -41.2194
lfemur -89.9319 20.3396 -17.515
ltibia 108.283
lfoot -25.2468 3.83483
ltoes -8.62127
1140
root 1.87387 9.65871 0.847979 8.30595 -15.4234 -0.0423316
lowerback 33.3134 -0.664272 -5.44113
upperback 2.10623 -3.22112 -1.82793
thorax -14.6576 -1.14941 2.29122
lowerneck -8.44131 11.1381 18.7396
upperneck 14.1329 13.6451 -8.32154
head 7.62242 6.9329 -4.2576
rclavicle 2.54444e-014 -4.53229e-014
rhumerus 0.484622 17.8231 -72.4419
rradius 132.809
rwrist -42.0444
rhand -12.7252 -11.8338
rfingers 7.12502
rthumb 13.3581 -41.3856
lclavicle 2.54444e-014 -4.53229e-014
lhumerus 35.5146 -20.1963 65.6445
lradius 139.295
lwrist 16.9896
lhand -25.3404 8.39344
lfingers 7.12502
lthumb 1.18277 38.3699
rfemur -47.1503 -52.6289 -20.8809
rtibia 114.051
rfoot -44.1584 29.6621
rtoes -41.2507
lfemur -89.6594 20.1629 -17.0726
ltibia 108.1
lfoot -25.1782 4.06754
ltoes -8.91178
1141
root 1.86563 9.67794 0.836505 8.28726 -15.3772 -0.180555
lowerback 33.2664 -0.572945 -5.24933
upperback 2.11871 -3.0405 -1.89439
thorax -14.6503 -1.08493 2.04082
lowerneck -8.41495 11.0013 18.6244
upperneck 14.0088 13.4676 -8.27028
head 7.53968 6.84566 -4.25286
rclavicle 2.22639e-014 5.40694e-014
rhumerus -0.783709 18.7472 -73.3997
rradius 133.187
rwrist -41.5267
rhand -12.9828 -11.7014
rfingers 7.12502
rthumb 13.1098 -41.2693
lclavicle 2.22639e-014 5.40694e-014
lhumerus 35.413 -20.2966 65.5997
lradius 139.253
lwrist 16.831
lhand -25.3216 8.52306
lfingers 7.12502
lthumb 1.20097 38.4994
rfemur -46.9968 -52.5101 -20.7001
rtibia 113.746
rfoot -44.1157 30.1588
rtoes -41.2889
lfemur -89.4161 19.9284 -16.6963
ltibia 107.881
lfoot -25.1014 4.27901
ltoes -9.25537
1142
root 1.85431 9.69716 0.823038 8.26947 -15.2494 -0.268733
lowerback 33.1933 -0.464436 -5.04142
upperback 2.13388 -2.82983 -1.96074
thorax -14.6295 -1.00861 1.76889
lowerneck -8.44703 10.8295 18.4489
upperneck 13.9227 13.2384 -8.19465
head 7.46666 6.73161 -4.23532
rclavicle -1.11319e-014 -4.21423e-014
rhumerus -1.86648 19.725 -74.393
rradius 133.342
rwrist -40.7134
rhand -13.0436 -11.6035
rfingers 7.12502
rthumb 13.0512 -41.1752
lclavicle -1.11319e-014 -4.21423e-014
lhumerus 35.3125 -20.5113 65.5783
lradius 139.23
lwrist 16.614
lhand -25.283 8.69898
lfingers 7.12502
lthumb 1.23823 38.6751
rfemur -46.8081 -52.3549 -20.5932
rtibia 113.477
rfoot -44.0822 30.5755
rtoes -41.3461
lfemur -89.207 19.6442 -16.39
ltibia 107.624
lfoot -25.0177 4.46786
ltoes -9.66687
1143
root 1.84011 9.717 0.807409 8.25195 -15.046 -0.294621
lowerback 33.1016 -0.336304 -4.85042
upperback 2.15253 -2.59789 -2.02159
thorax -14.5946 -0.922025 1.50282
lowerneck -8.5642 10.633 18.2005
upperneck 13.8927 12.9657 -8.07298
head 7.41305 6.59519 -4.19316
rclavicle 3.26007e-014 -2.22639e-014
rhumerus -2.70524 20.7433 -75.3877
rradius 133.254
rwrist -39.6385
rhand -12.8875 -11.5584
rfingers 7.12502
rthumb 13.2016 -41.1204
lclavicle 3.26007e-014 -2.22639e-014
lhumerus 35.2097 -20.8237 65.5717
lradius 139.235
lwrist 16.3632
lhand -25.2398 8.89358
lfingers 7.12502
lthumb 1.27993 38.8695
rfemur -46.5947 -52.1955 -20.5529
rtibia 113.257
rfoot -44.0584 30.8538
rtoes -41.4155
lfemur -89.027 19.3073 -16.1658
ltibia 107.321
lfoot -24.9251 4.64369
ltoes -10.1427
1144
root 1.8234 9.73804 0.789554 8.23619 -14.7752 -0.254988
lowerback 32.9979 -0.185546 -4.68737
upperback 2.17118 -2.34522 -2.07502
thorax -14.5515 -0.824309 1.2512
lowerneck -8.75002 10.4084 17.8752
upperneck 13.8981 12.6472 -7.89734
head 7.36881 6.43587 -4.12433
rclavicle -7.63333e-014 1.98785e-014
rhumerus -3.26226 21.7797 -76.353
rradius 132.919
rwrist -38.3695
rhand -12.5529 -11.5715
rfingers 7.12502
rthumb 13.5241 -41.1124
lclavicle -7.63333e-014 1.98785e-014
lhumerus 35.1037 -21.1993 65.5967
lradius 139.263
lwrist 16.1886
lhand -25.1661 8.99363
lfingers 7.12502
lthumb 1.35113 38.9691
rfemur -46.3748 -52.059 -20.5609
rtibia 113.092
rfoot -44.0453 30.9485
rtoes -41.4962
lfemur -88.8724 18.9198 -16.0292
ltibia 106.968
lfoot -24.8281 4.82231
ltoes -10.7129
1145
root 1.80473 9.76092 0.769458 8.22321 -14.4448 -0.154193
lowerback 32.8898 -0.0113835 -4.55395
upperback 2.18835 -2.07118 -2.11621
thorax -14.5052 -0.714736 1.0202
lowerneck -8.98973 10.1577 17.4756
upperneck 13.932 12.2902 -7.67947
head 7.33209 6.25682 -4.03273
rclavicle -5.32743e-014 -2.06736e-014
rhumerus -3.49014 22.7982 -77.2481
rradius 132.332
rwrist -37.0013
rhand -12.0589 -11.5979
rfingers 7.12502
rthumb 14.0003 -41.1065
lclavicle -5.32743e-014 -2.06736e-014
lhumerus 34.9857 -21.6679 65.6356
lradius 139.323
lwrist 15.9935
lhand -25.128 9.07455
lfingers 7.12502
lthumb 1.38798 39.0498
rfemur -46.162 -51.9499 -20.5957
rtibia 112.982
rfoot -44.0315 30.8409
rtoes -41.5773
lfemur -88.7369 18.4843 -15.9761
ltibia 106.562
lfoot -24.7268 5.01178
ltoes -11.3552
1146
root 1.78485 9.78646 0.747236 8.21042 -14.0622 0.00221136
lowerback 32.7862 0.186299 -4.4453
upperback 2.20484 -1.77392 -2.14262
thorax -14.4588 -0.59263 0.809375
lowerneck -9.26802 9.87834 16.9965
upperneck 13.9696 11.8961 -7.42338
head 7.29314 6.05822 -3.91939
rclavicle -5.96354e-015 2.38542e-015
rhumerus -3.35162 23.7761 -78.0384
rradius 131.498
rwrist -35.6074
rhand -11.503 -11.5941
rfingers 7.12502
rthumb 14.5359 -41.0649
lclavicle -5.96354e-015 2.38542e-015
lhumerus 34.8599 -22.1789 65.724
lradius 139.396
lwrist 15.874
lhand -25.0688 9.02657
lfingers 7.12502
lthumb 1.44516 39.0014
rfemur -45.9556 -51.8699 -20.6517
rtibia 112.917
rfoot -43.9968 30.5582
rtoes -41.6405
lfemur -88.6061 18 -15.9986
ltibia 106.101
lfoot -24.6285 5.21627
ltoes -12.011
